<?xml version="1.0"?>
<svg version="1.1" xmlns="http://www.w3.org/2000/svg" xmlns:xlink="http://www.w3.org/1999/xlink" width="16" height="16" viewBox="0 0 16 16">
    <desc iVinci="yes" version="4.6" gridStep="20" showGrid="no" snapToGrid="no" codePlatform="0"/>
    <g id="Layer1" name="Layer 1" opacity="1">
        <g id="Shape1">
            <desc shapeID="1" type="0" basicInfo-basicType="0" basicInfo-roundedRectRadius="12" basicInfo-polygonSides="6" basicInfo-starPoints="5" bounding="rect(-7.49868,-4.55377,14.9974,9.10754)" text="" font-familyName="" font-pixelSize="20" font-bold="0" font-underline="0" font-alignment="1" strokeStyle="0" markerStart="0" markerEnd="0" shadowEnabled="0" shadowOffsetX="0" shadowOffsetY="2" shadowBlur="4" shadowOpacity="160" blurEnabled="0" blurRadius="4" transform="matrix(-1,0.000568289,-0.000568289,-1,7.49835,4.55442)" pers-center="0,0" pers-size="0,0" pers-start="0,0" pers-end="0,0" locked="0" mesh="" flag=""/>
            <path id="shapePath1" d="M8.27283,0.00314426 C8.27611,0.00633049 8.39398,0.0142326 8.53313,0.0205297 C8.90474,0.0362582 8.89983,0.0362611 8.92112,0.0489993 C8.93422,0.056962 8.9424,0.0553637 8.94239,0.0442057 C8.94239,0.0330486 8.95385,0.0314474 8.97022,0.0394082 C8.9866,0.0473685 9.04553,0.0521169 9.10119,0.0520854 C9.15849,0.0520525 9.20432,0.0552149 9.20433,0.0599966 C9.20433,0.0647783 9.23216,0.0679507 9.2649,0.0679321 C9.29928,0.066319 9.33366,0.0694866 9.34348,0.0742626 C9.35167,0.0790405 9.37459,0.0838094 9.3926,0.0853925 C9.41061,0.0885706 9.45972,0.0917296 9.50065,0.0964894 C9.54321,0.0996523 9.58414,0.107599 9.59069,0.112377 C9.59888,0.117154 9.63163,0.125105 9.66273,0.129869 C9.71676,0.137808 9.7495,0.14576 9.84282,0.166428 C9.86574,0.171197 9.89685,0.175961 9.91158,0.177546 C9.92796,0.177536 9.94106,0.185499 9.94106,0.193469 C9.94106,0.201439 9.94598,0.204624 9.95089,0.198245 C9.95579,0.19346 9.99836,0.201406 10.0442,0.214132 C10.0917,0.226856 10.1359,0.239583 10.1457,0.242765 C10.1997,0.253892 10.3144,0.285706 10.3422,0.298442 C10.3602,0.3064 10.3897,0.315948 10.4077,0.317532 C10.4257,0.320709 10.4437,0.325481 10.4486,0.33026 C10.4535,0.335039 10.4977,0.350954 10.5469,0.368459 C10.6418,0.39869 10.7646,0.448032 10.8121,0.473508 C10.8285,0.483063 10.853,0.489424 10.8661,0.489417 C10.8809,0.489408 10.8956,0.498963 10.9005,0.510119 C10.9055,0.522868 10.9186,0.532423 10.93,0.532417 C10.9611,0.532399 11.2182,0.68049 11.2182,0.699617 C11.2182,0.707587 11.2248,0.710772 11.2313,0.705985 C11.2395,0.701199 11.2641,0.715531 11.2886,0.737832 C11.3116,0.75854 11.3361,0.77606 11.341,0.776057 C11.346,0.776054 11.3803,0.804725 11.4164,0.839772 C11.4541,0.874817 11.4917,0.903486 11.4999,0.903481 C11.5081,0.903477 11.5114,0.909851 11.5065,0.917824 C11.5016,0.925797 11.5147,0.943322 11.5376,0.957654 C11.5605,0.971987 11.5785,0.994292 11.5785,1.00864 C11.5786,1.02139 11.5851,1.02776 11.5949,1.02297 C11.6031,1.01819 11.6113,1.02456 11.6113,1.03731 C11.6113,1.05166 11.6162,1.06281 11.6228,1.06281 C11.6375,1.0628 11.7686,1.23806 11.762,1.24762 C11.7604,1.25081 11.7719,1.26834 11.7866,1.28427 C11.8357,1.33525 11.857,1.36393 11.857,1.37349 C11.8571,1.38784 11.9455,1.5153 11.9635,1.52804 C11.9717,1.53442 11.9734,1.54079 11.9668,1.54079 C11.9586,1.5408 11.9668,1.55992 11.9848,1.58382 C12.0291,1.64755 12.1356,1.84355 12.1241,1.84355 C12.1192,1.84356 12.1241,1.85312 12.134,1.86427 C12.1438,1.87702 12.1471,1.89136 12.1405,1.89614 C12.1356,1.90252 12.1373,1.9073 12.1471,1.9073 C12.1569,1.90729 12.1848,1.96307 12.2094,2.03 C12.234,2.09852 12.2618,2.16226 12.27,2.17342 C12.2799,2.18457 12.2815,2.20051 12.275,2.21007 C12.2701,2.21805 12.2717,2.22602 12.2782,2.22601 C12.2897,2.22601 12.3586,2.4268 12.3537,2.44912 C12.352,2.4539 12.3586,2.46984 12.3684,2.48737 C12.3832,2.51286 12.3947,2.55908 12.4012,2.61965 C12.4029,2.6308 12.4094,2.64036 12.416,2.64036 C12.4225,2.64036 12.4258,2.65311 12.4226,2.66745 C12.4209,2.68339 12.4226,2.70252 12.4275,2.71208 C12.434,2.72005 12.439,2.74236 12.4406,2.75989 C12.4423,2.77742 12.4488,2.8093 12.4554,2.83161 C12.4734,2.90173 12.5079,3.12965 12.503,3.15675 C12.5014,3.17109 12.5047,3.18225 12.5096,3.18225 C12.5162,3.18224 12.5211,3.23325 12.5211,3.29382 C12.5212,3.35598 12.5245,3.40539 12.5294,3.40539 C12.5343,3.40539 12.5376,3.45479 12.5376,3.51696 C12.5377,3.57753 12.5442,3.62853 12.5524,3.62853 C12.559,3.62852 12.5573,3.63968 12.5459,3.65244 C12.5344,3.6652 12.5312,3.67636 12.5394,3.67635 C12.5475,3.67635 12.5541,3.73532 12.5542,3.80864 C12.5542,3.88037 12.5575,3.98397 12.5625,4.03976 C12.5674,4.09554 12.5658,4.14496 12.5576,4.14974 C12.5511,4.15294 12.5544,4.16887 12.5658,4.18321 C12.5839,4.20392 12.5839,4.20552 12.5626,4.19437 C12.5413,4.18323 12.5413,4.18482 12.5593,4.20553 C12.574,4.22306 12.5757,4.23421 12.5626,4.24219 C12.5528,4.24698 12.5511,4.26132 12.5577,4.27088 C12.5643,4.28204 12.5726,4.54822 12.5744,4.86382 C12.5799,5.81221 12.5851,6.33024 12.5916,6.3398 C12.5965,6.35255 12.7651,6.27276 12.7733,6.25363 C12.7765,6.24725 12.7864,6.24565 12.7946,6.25202 C12.8027,6.2568 12.8093,6.25201 12.8093,6.24085 C12.8093,6.2297 12.8142,6.22491 12.8191,6.22969 C12.824,6.23606 12.8797,6.21372 12.9435,6.18339 C13.0073,6.15307 13.0744,6.12594 13.0924,6.12115 C13.1104,6.11795 13.1301,6.10997 13.135,6.10359 C13.1399,6.09562 13.1693,6.08125 13.1972,6.07008 C13.2266,6.0605 13.2757,6.04135 13.3035,6.03017 C13.333,6.02059 13.3608,6.00782 13.3657,6.00304 C13.3706,5.99826 13.4066,5.98389 13.4476,5.97111 C13.4885,5.95993 13.5507,5.93599 13.5867,5.91844 C13.6227,5.90088 13.6521,5.88811 13.6521,5.88971 C13.6521,5.89608 13.7487,5.87212 13.7667,5.86095 C13.7749,5.85616 13.7896,5.85137 13.7995,5.84977 C13.8682,5.83858 14.0466,5.78588 14.0548,5.77471 C14.0613,5.76674 14.0695,5.76833 14.0761,5.77789 C14.0843,5.78904 14.1006,5.78903 14.1285,5.77945 C14.1808,5.7587 14.5442,5.76009 14.5443,5.77922 C14.5443,5.78559 14.5705,5.79833 14.6016,5.80947 C14.6327,5.82061 14.6589,5.83494 14.6589,5.84291 C14.6589,5.85088 14.6703,5.85247 14.6867,5.84768 C14.7047,5.84129 14.7096,5.84288 14.7015,5.85564 C14.6949,5.8668 14.6966,5.87477 14.7047,5.87476 C14.744,5.87474 14.8882,6.04362 14.8882,6.08825 C14.8882,6.10259 14.8948,6.11375 14.9046,6.11374 C14.9177,6.11373 14.9308,6.14879 14.9636,6.26513 C14.9669,6.2731 14.9735,6.2986 14.98,6.32091 C15.0128,6.43247 14.9983,6.81343 14.9591,6.91068 C14.9525,6.92344 14.9476,6.93779 14.9476,6.94257 C14.9313,7.00793 14.8953,7.10199 14.8855,7.102 C14.8806,7.102 14.8659,7.12751 14.8544,7.1578 C14.843,7.18809 14.8266,7.21361 14.8201,7.21361 C14.8135,7.21361 14.807,7.22478 14.807,7.23753 C14.807,7.25028 14.7988,7.26144 14.7907,7.26145 C14.7808,7.26145 14.7743,7.26783 14.7743,7.27739 C14.7743,7.32202 14.4651,7.6123 14.4176,7.61233 C14.4062,7.61233 14.4012,7.61871 14.4062,7.62827 C14.4111,7.63624 14.4078,7.64421 14.398,7.64421 C14.3865,7.64422 14.3456,7.66497 14.3047,7.69209 C14.2654,7.71761 14.2262,7.73995 14.2163,7.73995 C14.2081,7.73996 14.2016,7.74634 14.2016,7.7559 C14.2016,7.76387 14.1869,7.77185 14.1705,7.77186 C14.1525,7.77187 14.1361,7.77666 14.1329,7.78463 C14.1263,7.79898 13.8481,7.93622 13.8317,7.93145 C13.8252,7.92986 13.8154,7.93464 13.8105,7.94262 C13.8006,7.95378 13.6485,8.03356 13.6288,8.03676 C13.6239,8.03677 13.5633,8.0639 13.493,8.09581 C13.4242,8.12773 13.3588,8.15487 13.3506,8.15487 C13.3408,8.15488 13.3342,8.16126 13.3342,8.17082 C13.3342,8.17879 13.3244,8.18677 13.313,8.18677 C13.2999,8.18678 13.2327,8.21073 13.1607,8.24105 C13.0904,8.27138 13.02,8.29851 13.0069,8.30171 C12.9938,8.3049 12.9774,8.31288 12.9725,8.31926 C12.9676,8.32724 12.9529,8.33521 12.9398,8.33681 C12.9267,8.34001 12.9038,8.3464 12.8891,8.35278 C12.8743,8.35917 12.8531,8.36715 12.84,8.36875 C12.8285,8.37035 12.8023,8.37993 12.7827,8.3911 C12.763,8.40227 12.7352,8.41025 12.7221,8.41026 C12.7074,8.41027 12.6959,8.41824 12.6959,8.42781 C12.6959,8.43578 12.6878,8.43897 12.6796,8.43419 C12.6714,8.42942 12.6534,8.42943 12.6436,8.4374 C12.6321,8.44378 12.619,8.45017 12.6141,8.45017 C12.5895,8.45337 12.3588,8.53161 12.3522,8.53799 C12.3473,8.54277 12.3326,8.54597 12.3195,8.54597 C12.3064,8.54439 12.2851,8.55078 12.2737,8.55875 C12.2638,8.56673 12.254,8.56992 12.254,8.56354 C12.254,8.55876 12.2262,8.56515 12.1935,8.57792 C12.1329,8.60027 11.8465,8.67535 11.763,8.69134 C11.7401,8.69613 11.709,8.70253 11.6942,8.70732 C11.6631,8.7169 11.6108,8.72809 11.5502,8.73768 C11.5044,8.74568 11.4471,8.75846 11.4356,8.76166 C11.4307,8.76326 11.4192,8.76645 11.4111,8.76964 C11.4012,8.77124 11.3914,8.77444 11.3865,8.77603 C11.3751,8.78082 11.2572,8.79683 11.2097,8.80004 C11.1901,8.80005 11.1737,8.80803 11.1737,8.816 C11.1737,8.82238 11.159,8.82557 11.141,8.8208 C11.123,8.81603 11.1082,8.81763 11.1082,8.82401 C11.1083,8.83038 11.0886,8.83358 11.0624,8.832 C11.0379,8.83042 11.01,8.83363 11.0019,8.84001 C10.992,8.8448 10.9675,8.85118 10.9446,8.85279 C10.8365,8.86561 10.7891,8.87041 10.7891,8.8736 C10.7891,8.87838 10.7285,8.88798 10.6499,8.896 C10.609,8.9008 10.5533,8.9088 10.5272,8.9136 C10.4993,8.9184 10.4486,8.9248 10.4126,8.9296 C10.3766,8.93281 10.3471,8.93602 10.3471,8.93761 C10.3471,8.93921 10.3062,8.94401 10.2571,8.94723 C10.1458,8.95685 10.0688,8.96487 10.0688,8.96965 C10.0688,8.97124 10.0279,8.97445 9.97879,8.97767 C9.92968,8.98088 9.84784,8.98731 9.79873,8.99371 C9.74962,8.99852 9.6645,9.00654 9.61048,9.01135 C9.55646,9.01616 9.48607,9.02098 9.45497,9.02578 C9.42387,9.02899 9.32729,9.03542 9.24217,9.04185 C8.97535,9.05953 8.92951,9.06434 8.91479,9.07391 C8.90497,9.08029 8.89842,9.07551 8.89841,9.06595 C8.89841,9.05639 8.89022,9.0532 8.8804,9.05958 C8.8624,9.06916 8.81493,9.07397 8.45643,9.08852 C8.37949,9.09175 8.31729,9.09657 8.31729,9.09816 C8.31729,9.10772 8.24035,9.10617 8.22398,9.09662 C8.21415,9.09025 8.19123,9.09185 8.17651,9.09983 C8.15687,9.10941 8.14377,9.10782 8.13722,9.09826 C8.13066,9.08711 8.1192,9.08711 8.10775,9.09509 C8.08484,9.11104 6.89309,9.11172 6.87671,9.09579 C6.87016,9.08942 6.85051,9.09102 6.83415,9.1006 C6.81288,9.11176 6.80305,9.11018 6.80305,9.09902 C6.80304,9.08627 6.79322,9.08627 6.77031,9.09904 C6.74739,9.1118 6.73757,9.11181 6.73757,9.09906 C6.73756,9.0879 6.72774,9.08631 6.70646,9.09748 C6.6901,9.10705 6.67209,9.10866 6.66554,9.10229 C6.65899,9.09751 6.60496,9.09116 6.54439,9.0896 C6.30866,9.08336 6.09911,9.06913 6.08274,9.05958 C6.07455,9.0548 6.06636,9.05799 6.06637,9.06756 C6.06637,9.07712 6.05819,9.08031 6.04509,9.07235 C6.03526,9.06598 6.00743,9.05962 5.98451,9.05804 C5.81753,9.04857 5.60635,9.03435 5.55887,9.02959 C5.441,9.01531 5.238,8.99949 5.17907,8.99793 C5.14469,8.99636 5.11686,8.99318 5.11685,8.9884 C5.11685,8.98362 5.09229,8.98045 5.06283,8.98046 C5.035,8.98207 5.00389,8.9805 4.99571,8.97572 C4.98752,8.97094 4.94332,8.96618 4.89748,8.96302 C4.79434,8.95671 4.68466,8.94561 4.60935,8.9329 C4.57824,8.92654 4.5193,8.9202 4.47838,8.91704 C4.43745,8.91387 4.38997,8.90752 4.37196,8.90435 C4.35395,8.89957 4.29829,8.89164 4.24918,8.88529 C4.20006,8.87894 4.14931,8.86622 4.1362,8.85507 C4.11655,8.84233 4.11492,8.84233 4.12475,8.85826 C4.1313,8.86782 4.12803,8.87739 4.11985,8.87739 C4.11002,8.8774 4.10184,8.87262 4.10183,8.86465 C4.10183,8.85827 4.07236,8.85351 4.03635,8.85353 C4.00033,8.85355 3.97086,8.85038 3.97086,8.8456 C3.97085,8.83603 3.91519,8.8281 3.84316,8.82495 C3.82352,8.82337 3.80714,8.81859 3.80714,8.81381 C3.80714,8.80903 3.79076,8.80426 3.76948,8.80268 C3.72692,8.80111 3.64179,8.78681 3.56647,8.76772 C3.53864,8.75977 3.51081,8.75819 3.5059,8.76298 C3.50099,8.76776 3.49608,8.76458 3.49607,8.75661 C3.49607,8.74864 3.47969,8.74068 3.45841,8.73909 C3.41094,8.73593 3.34218,8.72322 3.33562,8.71844 C3.33399,8.71685 3.31761,8.71208 3.29961,8.71049 C3.2816,8.70891 3.26522,8.70573 3.26195,8.70255 C3.25704,8.69936 3.22102,8.68982 3.13588,8.67233 C3.09495,8.66279 3.03601,8.64848 3.0049,8.63893 C2.97379,8.62939 2.92959,8.61826 2.90666,8.61349 C2.88375,8.61031 2.85427,8.60236 2.84118,8.59599 C2.81334,8.58485 2.79697,8.58008 2.75112,8.56894 C2.73311,8.56577 2.65616,8.5419 2.57921,8.51804 C2.50225,8.49417 2.43676,8.47349 2.43185,8.4719 C2.42694,8.4703 2.4122,8.46553 2.3991,8.45916 C2.33525,8.43529 2.20917,8.39233 2.19771,8.39074 C2.19116,8.38915 2.18297,8.38596 2.17806,8.38437 C2.17315,8.38278 2.16496,8.3796 2.15678,8.37801 C2.15023,8.37642 2.13058,8.36687 2.11257,8.35731 C2.09455,8.34776 2.07654,8.3398 2.07163,8.3398 C2.06017,8.33822 1.97175,8.30639 1.93245,8.28888 C1.84567,8.25067 1.70977,8.19337 1.70485,8.19337 C1.68521,8.19338 0.80917,7.77786 0.794427,7.76193 C0.789513,7.75715 0.760038,7.73963 0.728925,7.72212 C0.697812,7.70619 0.668336,7.68868 0.663422,7.6839 C0.658507,7.67912 0.617567,7.65205 0.57335,7.62179 C0.527496,7.59153 0.483279,7.55967 0.475088,7.55011 C0.465261,7.54056 0.434142,7.51188 0.403024,7.48799 C0.371906,7.46251 0.316216,7.40516 0.280175,7.36055 C0.242498,7.31434 0.208097,7.27451 0.201549,7.27292 C0.193362,7.26974 0.188444,7.25699 0.188437,7.24424 C0.188429,7.23149 0.180238,7.22193 0.172053,7.22193 C0.162231,7.22194 0.157318,7.21716 0.15895,7.20919 C0.162215,7.19325 0.103217,7.07852 0.0901213,7.07853 C0.0852098,7.07853 0.078651,7.05941 0.0770001,7.0355 C0.0753498,7.01159 0.0687895,6.98928 0.0606012,6.9845 C0.0474992,6.97335 0.0392966,6.94307 0.0343561,6.89207 C0.0343442,6.87135 0.0294247,6.85541 0.0245132,6.85541 C-0.00658989,6.85543 -0.00684261,6.41072 0.0225644,6.3055 C0.0503354,6.20347 0.138625,6.01056 0.156632,6.01055 C0.164816,6.01054 0.171361,6.00416 0.171355,5.9946 C0.171347,5.98025 0.213885,5.93719 0.294062,5.8702 C0.307151,5.85904 0.318608,5.85425 0.318611,5.85903 C0.318614,5.86541 0.330069,5.85743 0.343158,5.84467 C0.366065,5.82394 0.433168,5.79839 0.531376,5.77602 C0.562476,5.76963 0.770378,5.76951 0.834225,5.77745 C0.880064,5.7822 0.927543,5.79174 1.0225,5.81241 C1.04542,5.81717 1.08308,5.82512 1.10764,5.82989 C1.13383,5.83466 1.15348,5.8458 1.15349,5.85377 C1.15349,5.86174 1.16004,5.86493 1.16822,5.86014 C1.17968,5.85216 1.36305,5.90625 1.45639,5.94605 C1.50551,5.96674 1.571,5.98424 1.57263,5.97627 C1.57427,5.97308 1.59064,5.98423 1.6103,6.00016 C1.62995,6.01768 1.64469,6.02564 1.64469,6.02086 C1.64468,6.0097 1.85754,6.09884 2.10316,6.21346 C2.1703,6.24531 2.23088,6.26918 2.23743,6.26758 C2.24561,6.26598 2.25053,6.27236 2.25053,6.28192 C2.25054,6.29148 2.262,6.29626 2.27509,6.28988 C2.28819,6.28509 2.29965,6.28667 2.29965,6.29464 C2.29966,6.3058 2.3799,6.34879 2.3979,6.34559 C2.40281,6.344 2.4077,6.29937 2.4093,6.24517 C2.40927,6.18938 2.41252,6.14316 2.41415,6.13997 C2.42397,6.1304 2.42231,6.09374 2.41084,6.06984 C2.40265,6.0539 2.40428,6.03955 2.41409,6.03317 C2.42391,6.02679 2.42554,6.01563 2.42063,6.00607 C2.41407,5.99651 2.41076,5.92319 2.41399,5.84349 C2.41558,5.7638 2.41865,5.41313 2.41845,5.06405 C2.41989,4.71657 2.42792,4.43125 2.43446,4.43125 C2.44265,4.43124 2.44264,4.42168 2.43609,4.41212 C2.42298,4.393 2.42295,4.33402 2.43747,3.95306 C2.44554,3.757 2.44553,3.74106 2.44388,3.70919 C2.44387,3.69962 2.44711,3.63586 2.45362,3.57051 C2.45849,3.50515 2.46498,3.40473 2.46986,3.34735 C2.48123,3.18157 2.49262,3.07158 2.50242,3.02854 C2.50732,3.00622 2.51548,2.9568 2.52037,2.91695 C2.52525,2.8771 2.53506,2.84362 2.5416,2.84043 C2.54815,2.83883 2.55141,2.81492 2.54976,2.78942 C2.54811,2.76232 2.55137,2.7416 2.55792,2.7416 C2.56447,2.74159 2.56937,2.72565 2.56772,2.70493 C2.56607,2.68581 2.56769,2.6619 2.57424,2.65392 C2.57914,2.64436 2.58405,2.63001 2.58732,2.62204 C2.58895,2.61247 2.60528,2.55508 2.6249,2.4945 C2.64287,2.43233 2.66247,2.36537 2.66737,2.34305 C2.67227,2.32233 2.68044,2.30001 2.68699,2.29522 C2.69353,2.29043 2.69844,2.27609 2.69843,2.26334 C2.69679,2.25058 2.70332,2.22508 2.71313,2.20754 C2.72294,2.19 2.73112,2.17246 2.73275,2.16768 C2.73602,2.15333 2.75727,2.09753 2.81612,1.96042 C2.88642,1.79302 2.99599,1.59212 3.10067,1.43585 C3.14483,1.37047 3.18081,1.31148 3.18081,1.3051 C3.1808,1.29713 3.18735,1.29075 3.19717,1.29075 C3.20535,1.29074 3.21353,1.27958 3.21352,1.26683 C3.21352,1.25408 3.22006,1.24291 3.22988,1.24291 C3.23807,1.2429 3.24625,1.23493 3.24624,1.22537 C3.24623,1.20305 3.40491,1.01169 3.50308,0.914402 C3.60451,0.813926 3.74523,0.700676 3.76815,0.700663 C3.77797,0.700657 3.78615,0.694277 3.78615,0.686307 C3.78615,0.678338 3.80742,0.66398 3.83524,0.652807 C3.86143,0.641634 3.88434,0.625682 3.88433,0.617712 C3.88433,0.609742 3.89251,0.608144 3.9007,0.612921 C3.91053,0.617697 3.92198,0.611314 3.92688,0.598561 C3.93179,0.584212 3.94324,0.576236 3.94979,0.581014 C3.95798,0.585792 3.97271,0.579407 3.9858,0.568243 C3.99725,0.557078 4.01362,0.544317 4.02344,0.542718 C4.03162,0.539526 4.08727,0.517179 4.14618,0.490047 C4.2542,0.442168 4.29021,0.427803 4.3704,0.395877 C4.39659,0.386299 4.42932,0.371935 4.44405,0.363957 C4.46041,0.355978 4.49151,0.349585 4.5128,0.349573 C4.53408,0.349561 4.55535,0.343173 4.55862,0.333607 C4.56026,0.325636 4.58317,0.31606 4.60772,0.314452 C4.63391,0.312843 4.65355,0.304862 4.65355,0.298487 C4.65355,0.29211 4.65845,0.287326 4.665,0.287322 C4.67319,0.288912 4.68137,0.287313 4.68628,0.285716 C4.69119,0.28412 4.70756,0.280922 4.72229,0.277726 C4.75503,0.271332 4.86305,0.239391 4.89906,0.225026 C4.91215,0.220236 4.93507,0.213847 4.94816,0.212246 C4.97435,0.209043 5.02673,0.197856 5.09548,0.181878 C5.17241,0.1643 5.21824,0.153116 5.24279,0.149914 C5.25589,0.148314 5.2788,0.141925 5.2919,0.137136 C5.30499,0.132346 5.35246,0.122755 5.39829,0.116354 C5.44249,0.109952 5.49159,0.101955 5.50469,0.0987601 C5.5718,0.0843759 5.82552,0.0571351 5.92538,0.0554848 C5.96466,0.0538678 5.99576,0.0490685 5.99576,0.0426931 C5.99576,0.0363169 6.01704,0.037899 6.04487,0.0458522 C6.07107,0.0538073 6.09726,0.0537925 6.10217,0.0458198 C6.10708,0.0394416 6.13818,0.0330477 6.17092,0.0330291 C6.20529,0.0330095 6.30679,0.0281701 6.39682,0.0217438 C6.56542,0.0104899 8.263,-0.00641441 8.27283,0.00314426 Z" style="stroke:none;fill-rule:evenodd;fill:#000000;fill-opacity:1;"/>
        </g>
        <g id="Shape2">
            <desc shapeID="2" type="0" basicInfo-basicType="0" basicInfo-roundedRectRadius="12" basicInfo-polygonSides="6" basicInfo-starPoints="5" bounding="rect(-2.15585,-1.49143,4.3117,2.98285)" text="" font-familyName="" font-pixelSize="20" font-bold="0" font-underline="0" font-alignment="1" strokeStyle="0" markerStart="0" markerEnd="0" shadowEnabled="0" shadowOffsetX="0" shadowOffsetY="2" shadowBlur="4" shadowOpacity="160" blurEnabled="0" blurRadius="4" transform="matrix(-1,0.000568289,-0.000568289,-1,9.60352,10.5984)" pers-center="0,0" pers-size="0,0" pers-start="0,0" pers-end="0,0" locked="0" mesh="" flag=""/>
            <path id="shapePath2" d="M11.575,9.1521 C11.5897,9.18078 11.6028,9.21424 11.6061,9.22699 C11.6078,9.23815 11.616,9.25887 11.6242,9.27161 C11.6324,9.28436 11.6406,9.30189 11.6422,9.31145 C11.6438,9.31942 11.6602,9.38476 11.6783,9.45489 C11.7357,9.67482 11.7423,9.70829 11.7374,9.76089 C11.7358,9.78958 11.7407,9.81349 11.7505,9.81348 C11.762,9.81348 11.762,9.82145 11.7489,9.8342 C11.7391,9.84696 11.7375,9.86131 11.744,9.86768 C11.762,9.8868 11.7604,9.96331 11.7408,9.97607 C11.7293,9.98405 11.7277,9.99361 11.7392,9.99998 C11.7572,10.0143 11.7589,10.1578 11.7393,10.2008 C11.7327,10.2152 11.7311,10.2423 11.736,10.2598 C11.741,10.2773 11.7393,10.2917 11.7328,10.2917 C11.7262,10.2917 11.7197,10.3076 11.7197,10.3267 C11.7148,10.3905 11.6952,10.4893 11.6789,10.5308 C11.6691,10.5531 11.6593,10.585 11.656,10.6025 C11.6544,10.6201 11.643,10.6551 11.6315,10.6822 C11.6201,10.7078 11.6103,10.7333 11.6086,10.7381 C11.607,10.7428 11.5956,10.7715 11.5808,10.8034 C11.5661,10.8353 11.5498,10.8752 11.5449,10.8943 C11.5383,10.9134 11.5252,10.9294 11.5171,10.9294 C11.5072,10.9294 11.504,10.9358 11.5105,10.9437 C11.5154,10.9517 11.5089,10.9692 11.4958,10.982 C11.4827,10.9947 11.4745,11.0091 11.4795,11.0123 C11.4827,11.0171 11.4762,11.0298 11.4615,11.041 C11.4484,11.0521 11.4369,11.0697 11.4369,11.0808 C11.4369,11.0936 11.432,11.1048 11.4239,11.108 C11.4173,11.1095 11.383,11.1558 11.347,11.2084 C11.311,11.261 11.2079,11.3759 11.1163,11.4636 C10.9265,11.6454 10.9052,11.6629 10.879,11.663 C10.8676,11.663 10.8643,11.6677 10.8692,11.6725 C10.8791,11.6837 10.7989,11.7347 10.7449,11.7523 C10.7301,11.7587 10.717,11.7682 10.717,11.7746 C10.7171,11.7969 10.303,11.9821 10.2342,11.9917 C10.2162,11.9933 10.2015,11.9965 10.2015,11.9981 C10.2015,12.0013 10.1409,12.0156 10.1148,12.0172 C10.1049,12.0188 10.0951,12.0236 10.0951,12.03 C10.0951,12.0348 10.0788,12.0396 10.0575,12.0412 C10.0378,12.0412 9.992,12.0476 9.95599,12.0524 C9.91997,12.0588 9.86105,12.0668 9.82503,12.0716 C9.79066,12.0764 9.75465,12.0844 9.7481,12.0876 C9.74156,12.0924 9.73501,12.0892 9.735,12.0796 C9.735,12.0685 9.7219,12.0685 9.69735,12.0765 C9.64661,12.0956 9.3323,12.0783 9.29136,12.0544 C9.28317,12.048 9.27662,12.0528 9.27663,12.0623 C9.27663,12.0719 9.26845,12.0751 9.25535,12.0671 C9.24552,12.0608 9.22751,12.0544 9.21933,12.0528 C9.2095,12.0512 9.17676,12.0449 9.14565,12.0385 C9.07525,12.0258 8.9148,11.9829 8.89188,11.9701 C8.88205,11.9637 8.86731,11.959 8.85913,11.9574 C8.84931,11.9558 8.81983,11.9447 8.79363,11.9335 C8.7658,11.9224 8.74124,11.9128 8.73633,11.9112 C8.70194,11.9017 8.52673,11.8125 8.51035,11.7966 C8.49889,11.7854 8.4776,11.7759 8.4645,11.7759 C8.45141,11.7759 8.44158,11.7695 8.44158,11.7616 C8.44157,11.7536 8.42847,11.7424 8.4121,11.7377 C8.39736,11.7329 8.36297,11.7106 8.33677,11.6883 C8.31056,11.666 8.28436,11.6485 8.27945,11.6485 C8.25326,11.6485 7.96006,11.357 7.87815,11.2502 C7.82737,11.1849 7.77822,11.1212 7.77003,11.11 C7.7602,11.1005 7.75692,11.0909 7.7602,11.0909 C7.76511,11.0909 7.74544,11.0527 7.71431,11.0065 C7.66188,10.9268 7.6373,10.8742 7.64055,10.8455 C7.64055,10.8375 7.634,10.8264 7.62417,10.82 C7.61435,10.8152 7.60287,10.7945 7.59959,10.777 C7.59467,10.7579 7.57991,10.7212 7.5668,10.6941 C7.55205,10.667 7.54058,10.6431 7.54222,10.6415 C7.54385,10.6383 7.53401,10.6049 7.52253,10.565 C7.51105,10.5252 7.49956,10.479 7.49792,10.4614 C7.49463,10.4439 7.48642,10.4041 7.47822,10.3738 C7.47002,10.3419 7.46508,10.2941 7.46506,10.2654 C7.46669,10.2367 7.46012,10.2144 7.45358,10.2144 C7.44703,10.2144 7.44532,10.0949 7.45015,9.94663 C7.4598,9.63899 7.46143,9.62465 7.47616,9.62464 C7.48271,9.62463 7.48434,9.61188 7.47942,9.59435 C7.4745,9.57841 7.48103,9.55928 7.49249,9.55131 C7.50558,9.54492 7.64799,9.53528 7.8117,9.532 L8.10963,9.52705 L8.08512,9.60357 C8.05407,9.7056 8.04755,9.75661 8.04605,9.98295 C8.04452,10.1726 8.04617,10.1965 8.08391,10.3495 C8.10852,10.4499 8.10524,10.4404 8.11999,10.477 C8.19213,10.6667 8.30355,10.8563 8.40347,10.9582 C8.42313,10.979 8.43459,10.9949 8.42968,10.9949 C8.42477,10.9949 8.43788,11.0092 8.45917,11.0283 C8.48046,11.0459 8.52796,11.0873 8.56399,11.1207 C8.60002,11.1542 8.66226,11.202 8.7032,11.2274 C8.74414,11.2529 8.78016,11.2768 8.78508,11.2816 C8.78999,11.2864 8.83748,11.3119 8.89152,11.3373 C8.94555,11.3644 8.99304,11.3899 8.99468,11.3978 C8.99796,11.4042 9.00778,11.4042 9.01597,11.3994 C9.02578,11.3946 9.04216,11.3994 9.05526,11.409 C9.06836,11.4201 9.07982,11.4233 9.07982,11.4185 C9.07982,11.4121 9.09619,11.4169 9.11584,11.4281 C9.13713,11.4376 9.16496,11.4487 9.17806,11.4503 C9.19116,11.4519 9.25828,11.4646 9.32541,11.4773 C9.40727,11.4948 9.51204,11.5011 9.63645,11.4963 C9.82634,11.4914 9.86726,11.485 9.98839,11.4531 C10.0244,11.4435 10.0686,11.4323 10.085,11.4291 C10.103,11.4259 10.1259,11.4163 10.139,11.4067 C10.1504,11.3972 10.1602,11.3924 10.1602,11.3972 C10.1602,11.4083 10.4254,11.2807 10.4385,11.2647 C10.4434,11.2599 10.481,11.2328 10.5219,11.2041 C10.5628,11.177 10.6397,11.1116 10.6937,11.0574 C10.8524,10.8947 10.8884,10.8516 10.9064,10.7974 C10.9129,10.7831 10.9244,10.7703 10.9326,10.7703 C10.9407,10.7703 10.9424,10.7623 10.9375,10.7544 C10.9325,10.7448 10.9342,10.7384 10.9407,10.7384 C10.9489,10.7384 10.98,10.6858 11.0094,10.622 C11.0388,10.5599 11.0699,10.4945 11.0797,10.4769 C11.0912,10.4546 11.0895,10.4514 11.0732,10.461 C11.0568,10.4706 11.0552,10.469 11.0715,10.4483 C11.083,10.4355 11.0879,10.4196 11.0813,10.4148 C11.0764,10.4084 11.078,10.4036 11.0879,10.4036 C11.0977,10.4036 11.1108,10.3701 11.1173,10.3271 C11.1254,10.2856 11.1336,10.241 11.1369,10.2283 C11.1499,10.1772 11.153,9.84092 11.1399,9.7692 C11.1169,9.64329 11.1038,9.58432 11.0857,9.53492 C11.0267,9.37556 11.0005,9.31979 10.989,9.31979 C10.9825,9.3198 10.9792,9.31342 10.9857,9.30545 C10.9907,9.29748 10.9841,9.27995 10.9726,9.2688 C10.953,9.25127 10.953,9.2433 10.9726,9.22735 C10.9841,9.21619 10.9939,9.20981 10.9939,9.213 C10.9939,9.21618 11.025,9.21298 11.0626,9.20658 C11.1019,9.19859 11.151,9.1874 11.1739,9.1842 C11.1968,9.17941 11.2361,9.17142 11.264,9.16502 C11.2901,9.15863 11.3163,9.15384 11.3212,9.15224 C11.4031,9.13625 11.4473,9.12826 11.4604,9.12666 C11.4686,9.12506 11.4931,9.11867 11.5128,9.11069 C11.5439,9.09951 11.5537,9.10588 11.575,9.1521 Z" style="stroke:none;fill-rule:evenodd;fill:#000000;fill-opacity:1;"/>
        </g>
        <g id="Shape3">
            <desc shapeID="3" type="0" basicInfo-basicType="0" basicInfo-roundedRectRadius="12" basicInfo-polygonSides="6" basicInfo-starPoints="5" bounding="rect(-6.71321,-1.82872,13.4264,3.65745)" text="" font-familyName="" font-pixelSize="20" font-bold="0" font-underline="0" font-alignment="1" strokeStyle="0" markerStart="0" markerEnd="0" shadowEnabled="0" shadowOffsetX="0" shadowOffsetY="2" shadowBlur="4" shadowOpacity="160" blurEnabled="0" blurRadius="4" transform="matrix(-1,0.000568289,-0.000568289,-1,7.50437,14.171)" pers-center="0,0" pers-size="0,0" pers-start="0,0" pers-end="0,0" locked="0" mesh="" flag=""/>
            <path id="shapePath3" d="M8.89045,12.3447 C8.89209,12.3463 8.95266,12.3526 9.02306,12.3574 C9.09509,12.3621 9.16549,12.37 9.17858,12.3732 C9.19987,12.3796 9.28991,12.3923 9.38323,12.4066 C9.40124,12.4082 9.41597,12.4113 9.41597,12.4129 C9.41597,12.4145 9.43071,12.4177 9.44872,12.4209 C9.46673,12.4225 9.51748,12.4336 9.56332,12.4447 C9.60753,12.4543 9.65992,12.467 9.67793,12.4702 C9.74833,12.4877 9.75979,12.4908 9.76307,12.4924 C9.76798,12.4972 9.7778,12.4988 9.84166,12.5147 C9.86785,12.5211 9.90387,12.5338 9.92025,12.5418 C9.93662,12.5497 9.95627,12.5529 9.96445,12.5481 C9.97427,12.5417 9.98082,12.5465 9.98083,12.5545 C9.98083,12.564 9.99229,12.572 10.007,12.572 C10.0218,12.572 10.0529,12.5815 10.0758,12.5943 C10.1478,12.6293 10.3312,12.7105 10.3492,12.7153 C10.3574,12.7168 10.3853,12.7328 10.4098,12.7487 C10.4328,12.7646 10.4573,12.7789 10.4622,12.7789 C10.4688,12.7789 10.5032,12.7981 10.5425,12.8219 C10.5801,12.8458 10.6162,12.8633 10.6227,12.8617 C10.6309,12.8601 10.6358,12.8633 10.6358,12.8713 C10.6358,12.8777 10.662,12.8968 10.6931,12.9127 C10.7242,12.9302 10.7504,12.9493 10.7505,12.9573 C10.7505,12.9637 10.7586,12.9701 10.7685,12.97 C10.7783,12.97 10.7947,12.9796 10.8061,12.9892 C10.8176,13.0003 10.8618,13.0385 10.906,13.0736 C10.9486,13.1086 10.9928,13.1453 11.0027,13.1532 C11.0125,13.1628 11.0682,13.2058 11.1271,13.2488 C11.2336,13.3284 11.2516,13.3428 11.2975,13.3794 C11.3106,13.3905 11.3253,13.4001 11.3302,13.4001 C11.3351,13.4001 11.3941,13.4399 11.4629,13.4877 C11.5333,13.5355 11.5988,13.5753 11.6102,13.5753 C11.6217,13.5753 11.6348,13.5864 11.6414,13.5992 C11.6463,13.6119 11.661,13.6231 11.6757,13.623 C11.6888,13.623 11.7003,13.631 11.7003,13.6406 C11.7003,13.6485 11.7069,13.6533 11.715,13.6485 C11.7232,13.6437 11.738,13.6501 11.7494,13.6629 C11.7609,13.6756 11.7789,13.6867 11.792,13.6867 C11.8035,13.6867 11.8198,13.6979 11.828,13.7122 C11.8362,13.7266 11.8493,13.7361 11.8575,13.7361 C11.8788,13.7345 11.9361,13.7536 11.9459,13.7648 C11.9803,13.8062 12.4912,14.0067 12.5305,13.994 C12.5419,13.9892 12.5518,13.9939 12.5518,14.0019 C12.5518,14.0194 12.7433,14.0592 12.8792,14.0719 C12.9103,14.075 12.9414,14.083 12.948,14.0925 C12.9562,14.1037 12.9611,14.1021 12.9611,14.0925 C12.9611,14.0814 12.9954,14.0782 13.0577,14.0845 C13.1117,14.0893 13.1526,14.0908 13.1477,14.086 C13.1444,14.0813 13.1804,14.0669 13.2295,14.0525 C13.2786,14.0366 13.3408,14.0094 13.367,13.9903 C13.3948,13.9727 13.4243,13.9568 13.4325,13.9568 C13.4423,13.9568 13.4554,13.9424 13.4603,13.9249 C13.4668,13.9073 13.4783,13.8962 13.4864,13.901 C13.4946,13.9073 13.5012,13.8994 13.5012,13.8866 C13.5012,13.8723 13.5077,13.8611 13.5159,13.8611 C13.529,13.8611 13.5813,13.7559 13.5944,13.7017 C13.6025,13.6634 13.6008,13.4913 13.5893,13.4387 C13.5745,13.3637 13.5696,13.343 13.5663,13.3383 C13.5631,13.3367 13.5614,13.3303 13.5598,13.3223 C13.5532,13.2904 13.4811,13.1614 13.4516,13.1311 C13.4336,13.1136 13.4189,13.0929 13.4189,13.0881 C13.4189,13.0626 13.2092,12.889 13.1765,12.889 C13.1667,12.889 13.1568,12.8842 13.1568,12.8762 C13.1568,12.8475 12.9161,12.7632 12.8097,12.7553 C12.7131,12.7474 12.5445,12.7682 12.4741,12.7969 C12.448,12.8065 12.4185,12.8129 12.407,12.8113 C12.3972,12.8097 12.3874,12.8177 12.3874,12.8273 C12.3874,12.8384 12.3825,12.8416 12.3759,12.8368 C12.371,12.8305 12.3481,12.8369 12.3252,12.8512 C12.2532,12.8975 12.2712,12.864 12.3677,12.7763 C12.479,12.671 12.6197,12.5689 12.6983,12.5338 C12.7686,12.5035 12.8898,12.4747 12.9029,12.4875 C12.9078,12.4922 12.9111,12.4891 12.911,12.4811 C12.911,12.4651 13.1566,12.465 13.2221,12.4809 C13.245,12.4857 13.2843,12.4936 13.3121,12.5 C13.3383,12.5047 13.3907,12.5223 13.4267,12.5382 C13.4857,12.5636 13.5299,12.5796 13.5626,12.5891 C13.5692,12.5907 13.5872,12.6034 13.6036,12.6178 C13.6183,12.6321 13.6527,12.6544 13.6773,12.6671 C13.7804,12.7197 13.941,12.8806 14.0311,13.024 C14.0966,13.1307 14.1474,13.2391 14.1294,13.2391 C14.1245,13.2391 14.1327,13.2503 14.1474,13.2646 C14.1622,13.2789 14.1704,13.3012 14.1655,13.3124 C14.1606,13.3252 14.1639,13.3347 14.172,13.3347 C14.1819,13.3347 14.1868,13.3395 14.1851,13.3459 C14.1835,13.3538 14.1917,13.4176 14.2032,13.4909 C14.2312,13.6535 14.215,13.9914 14.1774,14.0839 C14.161,14.1237 14.1545,14.154 14.1545,14.1827 C14.1545,14.1986 14.148,14.2114 14.1382,14.2114 C14.13,14.2114 14.1234,14.221 14.1234,14.2321 C14.1234,14.2449 14.1136,14.2752 14.1022,14.3007 C14.0891,14.3262 14.0662,14.3772 14.0482,14.4139 C14.0319,14.4522 14.0123,14.4824 14.0041,14.4825 C13.9975,14.4825 13.9926,14.4936 13.9926,14.5064 C13.9926,14.5191 13.9861,14.5303 13.9779,14.5303 C13.9697,14.5303 13.955,14.5526 13.9436,14.5781 C13.9321,14.6036 13.9174,14.626 13.9092,14.626 C13.901,14.626 13.8945,14.6371 13.8945,14.6515 C13.8945,14.6642 13.888,14.6706 13.8781,14.6658 C13.8699,14.6611 13.8618,14.6658 13.8618,14.677 C13.8618,14.7121 13.4397,15.1204 13.4053,15.1204 C13.3987,15.1204 13.3693,15.1411 13.3382,15.1682 C13.3087,15.1937 13.2695,15.2193 13.2531,15.2257 C13.2367,15.2304 13.2236,15.2416 13.2237,15.2496 C13.2237,15.2576 13.2122,15.2639 13.1991,15.2639 C13.186,15.264 13.1746,15.2703 13.1746,15.2783 C13.1746,15.2863 13.1549,15.3022 13.1287,15.315 C13.1042,15.3262 13.0436,15.3613 12.9946,15.3916 C12.9455,15.4219 12.8996,15.4474 12.8931,15.4474 C12.8865,15.4474 12.8718,15.457 12.8604,15.4666 C12.8505,15.4777 12.8342,15.4873 12.826,15.4873 C12.8178,15.4873 12.7916,15.5017 12.7687,15.5176 C12.7442,15.5336 12.7196,15.5479 12.7131,15.5495 C12.6951,15.5527 12.4872,15.6437 12.4381,15.6692 C12.4152,15.682 12.389,15.6932 12.3808,15.6948 C12.3579,15.6996 12.3481,15.7044 12.2221,15.7491 C12.1632,15.7698 12.1091,15.7842 12.1042,15.7794 C12.0993,15.773 12.0944,15.7778 12.0944,15.789 C12.0944,15.8001 12.0862,15.8033 12.0781,15.7986 C12.0682,15.7938 12.0617,15.7954 12.0617,15.8049 C12.0617,15.8129 12.0486,15.8177 12.0322,15.8145 C12.0175,15.8129 11.9929,15.8161 11.9782,15.8241 C11.9635,15.8305 11.934,15.8401 11.9127,15.8449 C11.8031,15.8688 11.6574,15.904 11.6361,15.9136 C11.623,15.9184 11.5854,15.9248 11.5543,15.928 C11.5232,15.9312 11.4741,15.9376 11.4479,15.9424 C11.3808,15.9552 11.3038,15.9648 11.1811,15.9744 C11.1238,15.9776 11.0714,15.9856 11.0632,15.9904 C11.055,15.9952 11.0452,15.992 11.0387,15.9824 C11.0321,15.9729 11.019,15.9713 11.0092,15.9777 C10.9879,15.992 10.4903,15.9971 10.4902,15.9828 C10.4902,15.978 10.451,15.9748 10.4035,15.9732 C10.2987,15.9733 10.1088,15.9543 10.0319,15.9384 C10.0008,15.9304 9.94836,15.9257 9.91399,15.9257 C9.88125,15.9273 9.85833,15.9225 9.86323,15.9146 C9.8665,15.9082 9.85013,15.9034 9.82394,15.9018 C9.79938,15.9019 9.76664,15.8987 9.75354,15.8955 C9.74044,15.8923 9.70606,15.8844 9.67987,15.8796 C9.65203,15.8748 9.57181,15.8558 9.49977,15.8383 C9.42773,15.8208 9.35406,15.8017 9.33605,15.7985 C9.31804,15.7937 9.29512,15.789 9.28693,15.7858 C9.26892,15.781 9.26401,15.7794 9.13957,15.7349 C9.09372,15.719 9.04952,15.7046 9.04133,15.7046 C9.02496,15.7031 9.01186,15.6983 8.90215,15.6521 C8.87104,15.6394 8.83502,15.6267 8.82356,15.6235 C8.8121,15.6219 8.78426,15.6091 8.76297,15.5948 C8.74168,15.5805 8.71221,15.5693 8.69912,15.5693 C8.68602,15.5694 8.66801,15.5566 8.65817,15.5407 C8.64998,15.5263 8.64015,15.5168 8.63688,15.52 C8.6287,15.5311 8.5583,15.5041 8.55829,15.4897 C8.55828,15.4834 8.54027,15.4722 8.51735,15.4674 C8.49115,15.4611 8.47969,15.4499 8.48623,15.4388 C8.49441,15.426 8.4895,15.4244 8.47149,15.4308 C8.45512,15.4356 8.44366,15.434 8.44366,15.4244 C8.44365,15.4149 8.43547,15.4133 8.42729,15.4181 C8.41747,15.4229 8.41092,15.4213 8.41091,15.4117 C8.41091,15.4037 8.38143,15.3799 8.3454,15.3607 C8.30938,15.34 8.2799,15.3177 8.27989,15.3114 C8.27989,15.3034 8.2717,15.3018 8.26352,15.3066 C8.2537,15.3114 8.24224,15.305 8.23732,15.2923 C8.2324,15.2779 8.2193,15.2668 8.20784,15.2668 C8.18492,15.2668 7.95237,15.0996 7.92288,15.0645 C7.91305,15.0502 7.90323,15.0422 7.90323,15.047 C7.90323,15.0534 7.87703,15.0327 7.84427,15.0024 C7.81151,14.9721 7.77712,14.9482 7.76894,14.9482 C7.76075,14.9482 7.75747,14.9419 7.76402,14.9339 C7.76892,14.9243 7.75909,14.91 7.74108,14.902 C7.72307,14.8925 7.70341,14.8702 7.69849,14.8526 C7.69193,14.8351 7.68047,14.824 7.67228,14.8287 C7.6641,14.8351 7.65755,14.8272 7.65754,14.8128 C7.65754,14.8001 7.64607,14.7841 7.63297,14.7794 C7.61987,14.773 7.61332,14.7634 7.61822,14.7555 C7.62313,14.7475 7.61821,14.7411 7.61003,14.7411 C7.60021,14.7411 7.59366,14.7363 7.59529,14.7284 C7.59692,14.722 7.58544,14.6917 7.56742,14.6614 C7.53465,14.6025 7.53137,14.5961 7.52807,14.5579 C7.52643,14.5435 7.5166,14.5387 7.50187,14.5451 C7.48714,14.5499 7.47896,14.5579 7.48388,14.5627 C7.49534,14.5738 7.37924,14.7891 7.3416,14.8242 C7.32688,14.8401 7.3138,14.8592 7.3138,14.8688 C7.31381,14.8768 7.30235,14.8847 7.28925,14.8848 C7.27616,14.8848 7.26634,14.8896 7.26798,14.8959 C7.27126,14.9039 7.26471,14.9119 7.25653,14.9151 C7.24671,14.9183 7.22544,14.9422 7.20581,14.9661 C7.18782,14.9916 7.16655,15.0076 7.16163,15.0012 C7.15508,14.9964 7.15018,15.0044 7.15018,15.0203 C7.15019,15.0363 7.14529,15.0458 7.14037,15.041 C7.13546,15.0347 7.11746,15.0427 7.10273,15.057 C7.0471,15.108 6.83765,15.2564 6.72801,15.3234 C6.71328,15.3314 6.69364,15.3441 6.68546,15.3521 C6.61673,15.4 6.54473,15.4399 6.54472,15.4303 C6.54472,15.4239 6.53817,15.4271 6.53163,15.4367 C6.51364,15.4654 6.38599,15.5372 6.37453,15.5276 C6.36961,15.5213 6.3647,15.526 6.36471,15.5356 C6.36471,15.5468 6.34999,15.5547 6.33198,15.5548 C6.31397,15.5548 6.29924,15.5611 6.29925,15.5707 C6.29925,15.5787 6.29271,15.5867 6.28452,15.5867 C6.27634,15.5867 6.23542,15.6026 6.19123,15.6218 C6.14705,15.6409 6.10613,15.6553 6.09794,15.6537 C6.09139,15.6521 6.08649,15.6585 6.08649,15.6697 C6.0865,15.6792 6.08159,15.684 6.07667,15.6792 C6.07176,15.6744 6.02429,15.6856 5.97028,15.7064 C5.91791,15.7271 5.87372,15.7399 5.87372,15.7351 C5.87371,15.7303 5.86226,15.7351 5.84917,15.7463 C5.83608,15.7575 5.82462,15.7623 5.82462,15.7559 C5.82461,15.7495 5.8017,15.7575 5.77551,15.7703 C5.74769,15.7846 5.71823,15.791 5.71004,15.7862 C5.70186,15.7815 5.6904,15.7862 5.68549,15.7958 C5.67895,15.8038 5.66422,15.8086 5.65112,15.8038 C5.63802,15.799 5.6282,15.8022 5.62821,15.8118 C5.62821,15.8213 5.61839,15.8261 5.60529,15.8214 C5.59383,15.8166 5.57746,15.8182 5.56928,15.8262 C5.5611,15.8325 5.52837,15.8437 5.49727,15.8485 C5.46617,15.8533 5.40724,15.8645 5.36632,15.8741 C5.3254,15.8837 5.27793,15.8933 5.25993,15.8965 C5.24192,15.8997 5.22392,15.9045 5.21901,15.9061 C5.2141,15.9077 5.19118,15.9093 5.16499,15.9093 C5.14043,15.9109 5.12079,15.9141 5.12079,15.9205 C5.1208,15.9252 5.09133,15.9316 5.05532,15.9332 C5.01931,15.9365 4.9702,15.9413 4.94401,15.9461 C4.8769,15.9604 4.78196,15.9701 4.65428,15.9781 C4.59044,15.9829 4.52496,15.9877 4.50695,15.9909 C4.48895,15.9941 4.4693,15.9894 4.46275,15.9798 C4.45455,15.9687 4.44964,15.9671 4.44965,15.9798 C4.44966,15.991 4.37927,15.9974 4.25322,16.0006 C4.1108,16.0039 4.05678,15.9992 4.05677,15.9848 C4.05676,15.9737 4.05021,15.9721 4.03548,15.9816 C4.02567,15.9896 3.99293,15.9944 3.96674,15.9928 C3.9389,15.9897 3.86196,15.9833 3.79484,15.977 C3.72772,15.9707 3.65569,15.9659 3.6344,15.9643 C3.61476,15.9628 3.59839,15.958 3.59838,15.9532 C3.59838,15.9484 3.58037,15.9452 3.55746,15.9468 C3.53454,15.95 3.51653,15.9469 3.51653,15.9405 C3.51652,15.9341 3.50015,15.9293 3.47887,15.931 C3.45923,15.9326 3.42485,15.9278 3.40192,15.9214 C3.379,15.9135 3.33807,15.9039 3.31188,15.9008 C3.28405,15.8976 3.2513,15.8912 3.2382,15.8849 C3.2251,15.8801 3.19563,15.8721 3.17271,15.869 C3.14979,15.8642 3.13015,15.861 3.12687,15.8578 C3.12523,15.8562 3.11541,15.8531 3.10722,15.8515 C3.0974,15.8499 3.08594,15.8451 3.07775,15.8435 C3.0712,15.8419 3.0581,15.8387 3.04992,15.8372 C3.04009,15.8356 3.02208,15.8292 3.00898,15.8244 C2.99589,15.8197 2.92548,15.7958 2.85344,15.7719 C2.7814,15.748 2.70444,15.721 2.68152,15.7114 C2.65859,15.7035 2.62585,15.6923 2.60784,15.6892 C2.58983,15.686 2.57182,15.6764 2.57017,15.6685 C2.5669,15.6589 2.55543,15.6525 2.54561,15.6525 C2.53415,15.6526 2.48503,15.6335 2.43591,15.6096 C2.38678,15.5873 2.34094,15.5682 2.33275,15.5698 C2.3262,15.5714 2.32129,15.565 2.32128,15.557 C2.32128,15.5491 2.31637,15.5427 2.30818,15.5443 C2.29509,15.5475 2.11988,15.4631 2.10841,15.4456 C2.10349,15.4392 2.08221,15.4281 2.05928,15.4217 C2.03636,15.4153 2.01508,15.4042 2.01016,15.3994 C2.00525,15.3946 1.93974,15.35 1.86277,15.3023 C1.78581,15.2545 1.71539,15.2083 1.70556,15.1987 C1.6941,15.1908 1.66462,15.1685 1.64005,15.151 C1.61385,15.1334 1.57291,15.1 1.5467,15.0761 C1.52213,15.0538 1.50248,15.0379 1.50248,15.0443 C1.50249,15.049 1.47628,15.0267 1.44516,14.9949 C1.41404,14.963 1.38456,14.9359 1.37965,14.9359 C1.37637,14.9359 1.34689,14.9104 1.31577,14.8802 C1.28301,14.8499 1.26172,14.8244 1.26499,14.8244 C1.26826,14.8244 1.25188,14.8037 1.22731,14.7798 C1.20275,14.7559 1.16507,14.7113 1.14213,14.6826 C1.1192,14.654 1.0848,14.6109 1.06514,14.5854 C1.04548,14.5615 1.03237,14.5376 1.03892,14.5313 C1.04382,14.5265 1.04055,14.5217 1.03073,14.5217 C1.01927,14.5217 1.01108,14.5122 1.01107,14.4994 C1.01106,14.4866 1.00614,14.4739 0.997956,14.4707 C0.966845,14.458 0.832425,14.1329 0.840584,14.0867 C0.842213,14.0723 0.837295,14.0596 0.830747,14.0596 C0.822562,14.0596 0.816006,14.0468 0.817635,14.0309 C0.817626,14.0165 0.811042,13.9544 0.801185,13.8922 C0.769953,13.6659 0.812339,13.3551 0.89573,13.1861 C0.913717,13.1494 0.928429,13.1127 0.928424,13.1032 C0.928419,13.0952 0.9366,13.0872 0.94806,13.0872 C0.957881,13.0872 0.962789,13.0824 0.956238,13.0776 C0.934946,13.0569 1.2196,12.722 1.26052,12.7204 C1.26707,12.7204 1.28834,12.7077 1.30634,12.6901 C1.33416,12.6646 1.53872,12.5561 1.56491,12.5513 C1.57146,12.5513 1.58946,12.5449 1.60747,12.5385 C1.70076,12.5034 1.72531,12.497 1.76623,12.4938 C1.79242,12.4922 1.81206,12.4858 1.81206,12.481 C1.81205,12.4699 2.07889,12.4745 2.1231,12.4856 C2.13619,12.4888 2.17385,12.4967 2.20496,12.5031 C2.23607,12.5111 2.27209,12.5238 2.28519,12.5349 C2.29829,12.5445 2.31303,12.5509 2.31794,12.5509 C2.33758,12.5477 2.40144,12.5811 2.40145,12.5954 C2.40146,12.6034 2.40801,12.6066 2.41455,12.6018 C2.42274,12.597 2.45876,12.6209 2.49643,12.6544 C2.5341,12.6878 2.56522,12.7133 2.56522,12.7085 C2.56522,12.7053 2.59797,12.734 2.63892,12.7722 C2.71918,12.8519 2.73721,12.8933 2.67498,12.8599 C2.65533,12.8487 2.63404,12.8312 2.62749,12.8232 C2.62094,12.8137 2.61439,12.8121 2.61439,12.8185 C2.61439,12.8249 2.58984,12.8201 2.56036,12.8073 C2.44411,12.7596 2.22474,12.7454 2.09871,12.7773 C1.99886,12.8029 1.77956,12.9082 1.77958,12.9321 C1.77958,12.9417 1.77467,12.9433 1.76976,12.9385 C1.75502,12.9258 1.56523,13.1139 1.53743,13.1666 C1.52598,13.1889 1.50473,13.2272 1.48837,13.2543 C1.4622,13.2957 1.43768,13.3611 1.43443,13.4009 C1.43444,13.4089 1.42789,13.4201 1.42135,13.4296 C1.41481,13.4376 1.40994,13.5061 1.41162,13.5811 C1.41336,13.7676 1.46089,13.86 1.61483,13.9826 C1.63449,13.9985 1.64922,14.0049 1.64922,13.9985 C1.64922,13.9922 1.65577,13.9938 1.66232,14.0033 C1.68198,14.0304 1.73929,14.0559 1.80642,14.0686 C1.88827,14.0845 1.89319,14.0861 1.8981,14.0893 C1.90956,14.0972 2.05853,14.0987 2.05853,14.0908 C2.05853,14.086 2.08635,14.0812 2.12073,14.0796 C2.25823,14.0731 2.77545,13.931 2.7918,13.8959 C2.79507,13.8879 2.80489,13.8863 2.81308,13.8927 C2.82127,13.8975 2.82781,13.8927 2.82781,13.8831 C2.8278,13.8719 2.83762,13.8672 2.85072,13.8719 C2.86382,13.8767 2.87692,13.8767 2.88019,13.8703 C2.88346,13.8639 2.97183,13.8161 3.07657,13.765 C3.18294,13.7124 3.26968,13.6661 3.26968,13.6597 C3.26967,13.6549 3.29586,13.6406 3.32696,13.6278 C3.35805,13.615 3.38424,13.6007 3.38423,13.5927 C3.38423,13.5863 3.39568,13.5799 3.40878,13.5799 C3.42188,13.5799 3.43333,13.5719 3.43333,13.564 C3.43332,13.5544 3.44314,13.548 3.4546,13.548 C3.46606,13.548 3.49224,13.5337 3.51187,13.5161 C3.53151,13.4986 3.55278,13.4842 3.55933,13.4842 C3.56752,13.4842 3.59861,13.4635 3.62969,13.4363 C3.66078,13.4108 3.69515,13.3901 3.70497,13.3885 C3.71643,13.3885 3.72952,13.3773 3.73442,13.363 C3.73933,13.3502 3.75078,13.3438 3.76061,13.3486 C3.76879,13.3534 3.77698,13.3518 3.77697,13.3422 C3.77697,13.3343 3.82278,13.2944 3.87842,13.2561 C3.93569,13.2162 4.00114,13.1652 4.02569,13.1428 C4.05023,13.1205 4.07314,13.1014 4.07805,13.1014 C4.08132,13.1014 4.10587,13.0822 4.13204,13.0567 C4.21385,12.9817 4.4004,12.8573 4.53296,12.7903 C4.56733,12.7727 4.59515,12.7536 4.59514,12.7472 C4.59514,12.7392 4.60005,12.7361 4.6066,12.7376 C4.61478,12.7392 4.67698,12.7137 4.74571,12.6818 C4.81609,12.6499 4.87991,12.6227 4.88974,12.6227 C4.89792,12.6227 4.9061,12.6163 4.9061,12.61 C4.9061,12.6036 4.92246,12.5972 4.94211,12.5956 C4.96011,12.594 4.98302,12.5828 4.98957,12.5717 C4.99774,12.5605 5.00429,12.5557 5.00429,12.5621 C5.0043,12.5685 5.03867,12.5605 5.08122,12.5445 C5.12541,12.5285 5.19088,12.5094 5.22853,12.503 C5.26782,12.4966 5.29891,12.487 5.29891,12.479 C5.2989,12.4711 5.312,12.4679 5.32673,12.4695 C5.34311,12.4726 5.38239,12.4662 5.41349,12.4551 C5.44458,12.4439 5.4806,12.4391 5.49042,12.4423 C5.50188,12.447 5.5117,12.4438 5.5117,12.4359 C5.51169,12.4263 5.52806,12.4215 5.5477,12.4231 C5.56899,12.4247 5.59681,12.4215 5.60991,12.4151 C5.623,12.4087 5.67047,12.3991 5.7163,12.3927 C5.7605,12.3879 5.83907,12.3767 5.89145,12.3703 C5.94219,12.3623 5.99457,12.3591 6.00931,12.3607 C6.02404,12.3623 6.0355,12.3591 6.0355,12.3543 C6.03549,12.3479 6.13207,12.3431 6.2483,12.343 C6.36617,12.3429 6.46112,12.3477 6.46112,12.354 C6.46112,12.3604 6.47422,12.3652 6.48896,12.3652 C6.51842,12.3636 6.61338,12.3779 6.61993,12.3842 C6.62484,12.3874 6.62648,12.3874 6.7067,12.4049 C6.73781,12.4129 6.77383,12.4256 6.78366,12.4336 C6.79512,12.4431 6.80495,12.4447 6.80494,12.4383 C6.80494,12.432 6.81476,12.4351 6.82623,12.4447 C6.83933,12.4542 6.85407,12.4574 6.85897,12.451 C6.86552,12.4463 6.87043,12.4479 6.87044,12.4574 C6.87044,12.4654 6.88027,12.4734 6.89009,12.4733 C6.91956,12.4749 6.95885,12.4845 6.96868,12.494 C6.99161,12.5163 7.1488,12.5896 7.1488,12.5784 C7.14879,12.572 7.15534,12.5736 7.1619,12.5816 C7.18155,12.6087 7.29292,12.6851 7.31256,12.6851 C7.32238,12.6851 7.32566,12.6915 7.32075,12.701 C7.31585,12.709 7.31749,12.717 7.32731,12.717 C7.34368,12.717 7.41411,12.7823 7.47308,12.854 C7.50749,12.897 7.5124,12.8986 7.52711,12.8715 C7.54838,12.8364 7.7218,12.6594 7.72181,12.6737 C7.72181,12.6849 7.766,12.653 7.81344,12.6083 C7.82653,12.5971 7.83635,12.5908 7.83635,12.5955 C7.83636,12.6019 7.86418,12.5892 7.89691,12.5684 C7.95746,12.5333 7.98692,12.5205 8.09002,12.4774 C8.11621,12.4663 8.15222,12.4519 8.16858,12.4423 C8.18495,12.4344 8.20459,12.4328 8.21278,12.4375 C8.2226,12.4439 8.22915,12.4407 8.22915,12.4327 C8.22914,12.4248 8.23896,12.4184 8.24878,12.4168 C8.26024,12.4168 8.31589,12.404 8.37154,12.3912 C8.42556,12.3768 8.49594,12.3625 8.52704,12.3592 C8.55651,12.3544 8.58433,12.3496 8.58924,12.3481 C8.6007,12.3449 8.88554,12.3399 8.89045,12.3447 Z" style="stroke:none;fill-rule:evenodd;fill:#000000;fill-opacity:1;"/>
        </g>
    </g>
</svg>
